<svg width="168" height="188" viewBox="0 0 168 188" fill="none" xmlns="http://www.w3.org/2000/svg">
<path d="M17.5 7C21.0899 7 24 4.08985 24 0.5C24 0.331764 23.9936 0.165021 23.9811 0H33.0189C33.0064 0.165021 33 0.331764 33 0.5C33 4.08985 35.9101 7 39.5 7C43.0899 7 46 4.08985 46 0.5C46 0.331764 45.9936 0.165021 45.9811 0H55.0189C55.0064 0.165021 55 0.331764 55 0.5C55 4.08985 57.9101 7 61.5 7C65.0899 7 68 4.08985 68 0.5C68 0.331764 67.9936 0.165021 67.9811 0H77.0189C77.0064 0.165021 77 0.331764 77 0.5C77 4.08985 79.9101 7 83.5 7C87.0899 7 90 4.08985 90 0.5C90 0.331764 89.9936 0.165021 89.9811 0H99.0189C99.0064 0.165021 99 0.331764 99 0.5C99 4.08985 101.91 7 105.5 7C109.09 7 112 4.08985 112 0.5C112 0.331764 111.994 0.165021 111.981 0H121.019C121.006 0.165021 121 0.331764 121 0.5C121 4.08985 123.91 7 127.5 7C131.09 7 134 4.08985 134 0.5C134 0.331764 133.994 0.165021 133.981 0H143.019C143.006 0.165021 143 0.331764 143 0.5C143 4.08985 145.91 7 149.5 7C153.09 7 156 4.08985 156 0.5C156 0.331764 155.994 0.165021 155.981 0H168V12.0189C167.835 12.0064 167.668 12 167.5 12C163.91 12 161 14.9101 161 18.5C161 22.0899 163.91 25 167.5 25C167.668 25 167.835 24.9936 168 24.9811V34.0189C167.835 34.0064 167.668 34 167.5 34C163.91 34 161 36.9101 161 40.5C161 44.0899 163.91 47 167.5 47C167.668 47 167.835 46.9936 168 46.9811V56.0189C167.835 56.0064 167.668 56 167.5 56C163.91 56 161 58.9101 161 62.5C161 66.0899 163.91 69 167.5 69C167.668 69 167.835 68.9936 168 68.9811V78.0189C167.835 78.0064 167.668 78 167.5 78C163.91 78 161 80.9101 161 84.5C161 88.0899 163.91 91 167.5 91C167.668 91 167.835 90.9936 168 90.9811V100.019C167.835 100.006 167.668 100 167.5 100C163.91 100 161 102.91 161 106.5C161 110.09 163.91 113 167.5 113C167.668 113 167.835 112.994 168 112.981V122.019C167.835 122.006 167.668 122 167.5 122C163.91 122 161 124.91 161 128.5C161 132.09 163.91 135 167.5 135C167.668 135 167.835 134.994 168 134.981V144.019C167.835 144.006 167.668 144 167.5 144C163.91 144 161 146.91 161 150.5C161 154.09 163.91 157 167.5 157C167.668 157 167.835 156.994 168 156.981V166.019C167.835 166.006 167.668 166 167.5 166C163.91 166 161 168.91 161 172.5C161 176.09 163.91 179 167.5 179C167.668 179 167.835 178.994 168 178.981V188H155.981C155.726 184.644 152.922 182 149.5 182C146.078 182 143.274 184.644 143.019 188H133.981C133.726 184.644 130.922 182 127.5 182C124.078 182 121.274 184.644 121.019 188H111.981C111.726 184.644 108.922 182 105.5 182C102.078 182 99.2743 184.644 99.0189 188H89.9811C89.7257 184.644 86.9216 182 83.5 182C80.0784 182 77.2743 184.644 77.0189 188H67.9811C67.7257 184.644 64.9216 182 61.5 182C58.0784 182 55.2743 184.644 55.0189 188H45.9811C45.7257 184.644 42.9216 182 39.5 182C36.0784 182 33.2743 184.644 33.0189 188H23.9811C23.7257 184.644 20.9216 182 17.5 182C14.0784 182 11.2743 184.644 11.0189 188H0V178.981C0.165021 178.994 0.331764 179 0.5 179C4.08985 179 7 176.09 7 172.5C7 168.91 4.08985 166 0.5 166C0.331764 166 0.165021 166.006 0 166.019V156.981C0.165021 156.994 0.331764 157 0.5 157C4.08985 157 7 154.09 7 150.5C7 146.91 4.08985 144 0.5 144C0.331764 144 0.165021 144.006 0 144.019V134.981C0.165021 134.994 0.331764 135 0.5 135C4.08985 135 7 132.09 7 128.5C7 124.91 4.08985 122 0.5 122C0.331764 122 0.165021 122.006 0 122.019V112.981C0.165021 112.994 0.331764 113 0.5 113C4.08985 113 7 110.09 7 106.5C7 102.91 4.08985 100 0.5 100C0.331764 100 0.165021 100.006 0 100.019V90.9811C0.165021 90.9936 0.331764 91 0.5 91C4.08985 91 7 88.0899 7 84.5C7 80.9101 4.08985 78 0.5 78C0.331764 78 0.165021 78.0064 0 78.0189V68.9811C0.165021 68.9936 0.331764 69 0.5 69C4.08985 69 7 66.0899 7 62.5C7 58.9101 4.08985 56 0.5 56C0.331764 56 0.165021 56.0064 0 56.0189V46.9811C0.165021 46.9936 0.331764 47 0.5 47C4.08985 47 7 44.0899 7 40.5C7 36.9101 4.08985 34 0.5 34C0.331764 34 0.165021 34.0064 0 34.0189V24.9811C0.165021 24.9936 0.331764 25 0.5 25C4.08985 25 7 22.0899 7 18.5C7 14.9101 4.08985 12 0.5 12C0.331764 12 0.165021 12.0064 0 12.0189V0H11.0189C11.0064 0.165021 11 0.331764 11 0.5C11 4.08985 13.9101 7 17.5 7Z" fill="white"/>
<rect x="14" y="16" width="140" height="156" rx="4" fill="#FFF4D4"/>
<path d="M111.566 153.901C105.64 154.307 100.134 152.158 96.1591 148.406C92.7513 152.664 87.6005 155.545 81.6752 155.951C74.3259 156.455 67.6207 153.027 63.6841 147.487C60.7154 149.62 57.1208 150.981 53.1844 151.251C42.3917 151.992 32.9879 144.253 31.7022 133.797C24.2299 131.287 18.6328 124.567 18.0497 116.326C17.5165 108.79 21.3154 101.941 27.3586 98.1438C23.1436 94.7884 20.3015 89.7838 19.8951 84.04C19.1189 73.0689 27.5227 63.5556 38.6656 62.7913C38.7915 62.7826 38.9172 62.7751 39.0428 62.7688C38.4758 51.9524 46.8164 42.6406 57.8357 41.8847C60.6961 41.6885 63.4589 42.0879 65.9989 42.9757C69.1025 36.9054 75.2845 32.5555 82.6698 32.049C91.6351 31.434 99.642 36.6701 102.833 44.4542C104.948 43.52 107.262 42.9304 109.709 42.7625C120.852 41.9982 130.514 50.2725 131.29 61.2435C131.424 63.1337 131.285 64.9806 130.907 66.747C139.685 68.4171 146.582 75.7192 147.232 84.9168C147.556 89.4885 146.285 93.807 143.887 97.3449C146.76 100.521 148.627 104.624 148.95 109.196C149.727 120.167 141.323 129.681 130.18 130.445C130.139 130.448 130.098 130.45 130.057 130.453C130.189 131.172 130.283 131.906 130.336 132.652C131.112 143.623 122.708 153.137 111.566 153.901Z" fill="url(#paint0_linear_118_134)"/>
<path d="M129.737 101.276C129.737 119.539 109.818 137 84 137C58.182 137 38.2632 121.229 38.2632 102.966C38.2632 96.0856 41.0898 88.292 45.9936 81.2494C42.5819 79.3745 40.2847 75.8573 40.2847 71.8276C40.2847 65.8286 45.3757 60.9655 51.6557 60.9655C55.915 60.9655 59.6274 63.2025 61.5754 66.5136C68.1495 62.5068 75.7754 60 84 60C91.9961 60 99.4264 62.2074 105.874 65.7974C107.914 62.884 111.389 60.9655 115.334 60.9655C121.614 60.9655 126.705 65.8286 126.705 71.8276C126.705 75.3381 124.961 78.4596 122.256 80.4453C127.006 87.1004 129.737 94.5137 129.737 101.276Z" fill="#FFCF63"/>
<circle cx="51.579" cy="72.1579" r="6.94737" fill="#FFE7B1"/>
<circle cx="116.421" cy="72.1579" r="6.94737" fill="#FFE7B1"/>
<path fill-rule="evenodd" clip-rule="evenodd" d="M55.4287 129.518C55.1469 128.051 55 126.541 55 125C55 110.641 67.7599 99 83.5 99C99.2401 99 112 110.641 112 125C112 126.531 111.855 128.031 111.577 129.489C103.98 134.125 94.4756 137 84 137C73.0621 137 63.183 134.169 55.4287 129.518Z" fill="#FFE7B1"/>
<g style="mix-blend-mode:multiply" opacity="0.5">
<path fill-rule="evenodd" clip-rule="evenodd" d="M61.4981 66.3844C60.1531 70.8993 59.2365 76.9309 63 79C70.2757 83 77.9212 74.1193 77.9212 74.1193C77.9212 74.1193 76.4999 84.0002 84.9999 84C93.4999 83.9999 92.395 74.1193 92.395 74.1193C92.395 74.1193 97.2631 82.918 104.5 79.9999C109.173 78.1158 107.603 70.7435 105.904 65.7558C105.894 65.7696 105.884 65.7835 105.874 65.7974C99.4264 62.2074 91.9961 60 84 60C75.7754 60 68.1495 62.5068 61.5754 66.5136C61.5499 66.4704 61.5242 66.4273 61.4981 66.3844Z" fill="#FFCF63"/>
</g>
<circle cx="6" cy="6" r="6" transform="matrix(-1 0 0 1 64 95.4873)" fill="#3A3A3A"/>
<ellipse cx="1.8" cy="2.1" rx="1.8" ry="2.1" transform="matrix(-1 0 0 1 62.2 97.2872)" fill="white"/>
<circle cx="0.9" cy="0.9" r="0.9" transform="matrix(-1 0 0 1 58.6 101.487)" fill="white"/>
<path d="M53.9706 92.4289C57.1857 90.7795 58.9307 90.9467 61.9596 92.8476" stroke="#3A3A3A" stroke-width="2.5" stroke-linecap="round"/>
<rect x="14" y="16" width="140" height="156" rx="4" fill="#FFEBA8"/>
<path d="M111.566 153.901C105.64 154.307 100.134 152.158 96.1591 148.406C92.7513 152.664 87.6005 155.545 81.6752 155.951C74.3259 156.455 67.6207 153.027 63.6841 147.487C60.7154 149.62 57.1208 150.981 53.1844 151.251C42.3917 151.992 32.9879 144.253 31.7022 133.797C24.2299 131.287 18.6328 124.567 18.0497 116.326C17.5165 108.79 21.3154 101.941 27.3586 98.1438C23.1436 94.7884 20.3015 89.7838 19.8951 84.04C19.1189 73.0689 27.5227 63.5556 38.6656 62.7913C38.7915 62.7826 38.9172 62.7751 39.0428 62.7688C38.4758 51.9524 46.8164 42.6406 57.8357 41.8847C60.6961 41.6885 63.4589 42.0879 65.9989 42.9757C69.1025 36.9054 75.2845 32.5555 82.6698 32.049C91.6351 31.434 99.642 36.6701 102.833 44.4542C104.948 43.52 107.262 42.9304 109.709 42.7625C120.852 41.9982 130.514 50.2725 131.29 61.2435C131.424 63.1337 131.285 64.9806 130.907 66.747C139.685 68.4171 146.582 75.7192 147.232 84.9168C147.556 89.4885 146.285 93.807 143.887 97.3449C146.76 100.521 148.627 104.624 148.95 109.196C149.727 120.167 141.323 129.681 130.18 130.445C130.139 130.448 130.098 130.45 130.057 130.453C130.189 131.172 130.283 131.906 130.336 132.652C131.112 143.623 122.708 153.137 111.566 153.901Z" fill="url(#paint1_linear_118_134)"/>
<path d="M112.28 153.901C106.309 154.307 100.761 152.158 96.7557 148.406C93.3219 152.664 88.1318 155.545 82.1613 155.951C74.7559 156.455 67.9994 153.027 64.0329 147.487C61.0414 149.62 57.4194 150.981 53.453 151.251C42.5779 151.992 33.1023 144.253 31.8068 133.797C24.2775 131.287 18.6377 124.567 18.0501 116.326C17.5128 108.79 21.3407 101.941 27.43 98.1438C23.1829 94.7884 20.3191 89.7838 19.9096 84.04C19.1274 73.0689 27.5954 63.5556 38.8233 62.7913C38.9502 62.7826 39.0769 62.7751 39.2034 62.7688C38.6321 51.9524 47.0364 42.6406 58.1398 41.8847C61.022 41.6885 63.8059 42.0879 66.3653 42.9757C69.4926 36.9054 75.7218 32.5555 83.1635 32.049C92.1972 31.434 100.265 36.6701 103.481 44.4542C105.611 43.52 107.944 42.9304 110.409 42.7625C121.637 41.9982 131.373 50.2725 132.155 61.2435C132.29 63.1337 132.15 64.9806 131.769 66.747C140.614 68.4171 147.563 75.7192 148.219 84.9168C148.545 89.4885 147.265 93.807 144.848 97.3449C147.743 100.521 149.624 104.624 149.95 109.196C150.732 120.167 142.264 129.681 131.036 130.445C130.995 130.448 130.953 130.45 130.912 130.453C131.046 131.172 131.14 131.906 131.194 132.652C131.976 143.623 123.508 153.137 112.28 153.901Z" fill="#764C24"/>
<path d="M132 103.42C132 122.632 111.096 141 84 141C56.9045 141 36 124.41 36 105.197C36 97.9602 38.9665 89.7617 44.1129 82.3532C40.5324 80.3809 38.1215 76.681 38.1215 72.442C38.1215 66.1314 43.4644 61.0157 50.0552 61.0157C54.5253 61.0157 58.4213 63.3689 60.4658 66.852C67.3651 62.637 75.3684 60 84 60C92.3918 60 100.19 62.322 106.957 66.0985C109.097 63.0338 112.744 61.0157 116.884 61.0157C123.475 61.0157 128.818 66.1314 128.818 72.442C128.818 76.1349 126.988 79.4186 124.149 81.5074C129.134 88.5082 132 96.3066 132 103.42Z" fill="#FFCF63"/>
<circle cx="49.8948" cy="72.7895" r="7.30827" fill="#FFE7B1"/>
<circle cx="118.105" cy="72.7895" r="7.30827" fill="#FFE7B1"/>
<path fill-rule="evenodd" clip-rule="evenodd" d="M51.4144 131.448C51.1423 130.161 51 128.843 51 127.5C51 113.417 66.6553 102 83.5 102C100.345 102 116 113.417 116 127.5C116 128.808 115.865 130.093 115.607 131.347C107.246 137.242 96.2561 141 84 141C71.2594 141 59.8877 137.332 51.4144 131.448Z" fill="#FFE7B1"/>
<g style="mix-blend-mode:multiply" opacity="0.5">
<path fill-rule="evenodd" clip-rule="evenodd" d="M61.4981 66.3844C60.1531 70.8993 59.2365 76.9309 63 79C70.2757 83 77.9212 74.1193 77.9212 74.1193C77.9212 74.1193 76.4999 84.0002 84.9999 84C93.4999 83.9999 92.395 74.1193 92.395 74.1193C92.395 74.1193 97.2631 82.918 104.5 79.9999C109.173 78.1158 107.603 70.7435 105.904 65.7558C105.894 65.7696 105.884 65.7835 105.874 65.7974C99.4264 62.2074 91.9961 60 84 60C75.7754 60 68.1495 62.5068 61.5754 66.5136C61.5499 66.4704 61.5242 66.4273 61.4981 66.3844Z" fill="#FFCF63"/>
</g>
<path d="M84.1342 103.412V109.444C84.1342 111.414 85.7313 113.011 87.7013 113.011H88.1997C89.8945 113.011 91.2684 111.638 91.2684 109.943V109.943" stroke="#6B4A32" stroke-width="2" stroke-linecap="round" stroke-linejoin="round"/>
<path d="M84.1342 103.412V109.444C84.1342 111.414 82.5372 113.011 80.5671 113.011H80.0688C78.3739 113.011 77 111.638 77 109.943V109.943" stroke="#6B4A32" stroke-width="2" stroke-linecap="round" stroke-linejoin="round"/>
<path d="M91.1177 103.952C91.1177 106.199 87.9573 108.021 84.0588 108.021C80.1603 108.021 77 106.199 77 103.952C77 101.704 80.1603 99 84.0588 99C87.9573 99 91.1177 101.704 91.1177 103.952Z" fill="#6B4A32"/>
<ellipse cx="80.2624" cy="102.176" rx="1.02344" ry="0.983047" fill="white"/>
<circle cx="59" cy="98" r="8" fill="#6B4A32"/>
<circle cx="61.7007" cy="96.4657" r="2.76923" transform="rotate(-150 61.7007 96.4657)" fill="white"/>
<circle cx="57.9783" cy="101.358" r="1.84615" transform="rotate(-150 57.9783 101.358)" fill="white"/>
<circle cx="110" cy="98" r="8" fill="#6B4A32"/>
<circle cx="112.701" cy="96.4657" r="2.76923" transform="rotate(-150 112.701 96.4657)" fill="white"/>
<circle cx="108.978" cy="101.358" r="1.84615" transform="rotate(-150 108.978 101.358)" fill="white"/>
<circle cx="50.5" cy="114.5" r="7.5" fill="#FEB1AA"/>
<circle cx="117.5" cy="114.5" r="7.5" fill="#FEB1AA"/>
<circle cx="63.25" cy="112.25" r="1.25" fill="#6B4A32" fill-opacity="0.7"/>
<circle cx="67.25" cy="113.25" r="1.25" fill="#6B4A32" fill-opacity="0.7"/>
<circle cx="64.25" cy="116.25" r="1.25" fill="#6B4A32" fill-opacity="0.7"/>
<circle cx="1.25" cy="1.25" r="1.25" transform="matrix(-1 0 0 1 106 111)" fill="#6B4A32" fill-opacity="0.7"/>
<circle cx="1.25" cy="1.25" r="1.25" transform="matrix(-1 0 0 1 102 112)" fill="#6B4A32" fill-opacity="0.7"/>
<circle cx="1.25" cy="1.25" r="1.25" transform="matrix(-1 0 0 1 105 115)" fill="#6B4A32" fill-opacity="0.7"/>
<path fill-rule="evenodd" clip-rule="evenodd" d="M35.0913 37.3466C34.5188 36.9718 33.886 36.8838 33.3554 37.1052C32.8248 37.3266 32.4423 37.8382 32.3058 38.5088C32.1805 39.1248 32.2642 39.8302 32.5416 40.495C32.819 41.1598 33.2614 41.7155 33.7874 42.0598C34.36 42.4346 34.9927 42.5225 35.5234 42.3011C36.054 42.0797 36.4365 41.5682 36.573 40.8976C36.6983 40.2816 36.6146 39.5762 36.3372 38.9114C36.0598 38.2466 35.6174 37.6908 35.0913 37.3466ZM37.6427 43.7404C36.1857 42.9748 34.6922 42.8416 33.4372 43.3652C32.1823 43.8888 31.2263 45.0441 30.7456 46.6182C30.3134 48.0331 30.3464 49.5752 30.8339 50.7435C31.0706 51.311 31.4245 51.6708 31.8856 51.8131C32.3407 51.9536 32.8262 51.8628 33.3236 51.6552C33.8529 51.4344 34.3956 51.0814 34.9288 50.7346C35.3947 50.4315 35.8349 50.1452 36.2022 49.9919C36.5192 49.8597 37.0009 49.7561 37.5107 49.6465C38.7023 49.3905 40.0528 49.1001 40.5257 48.196C40.7505 47.7662 40.7461 47.2646 40.5127 46.7051C40.0253 45.5369 38.9524 44.4286 37.6427 43.7404ZM29.0457 38.9035C29.5763 38.6821 30.209 38.7701 30.7816 39.1448C31.3075 39.4891 31.75 40.0448 32.0274 40.7096C32.3048 41.3745 32.3885 42.0798 32.2632 42.6959C32.1268 43.3665 31.7442 43.878 31.2136 44.0995C30.6829 44.3209 30.0503 44.2329 29.4777 43.8581C28.9516 43.5138 28.5092 42.9581 28.2318 42.2933C27.9544 41.6285 27.8707 40.9231 27.996 40.3071C28.1325 39.6365 28.515 39.1249 29.0457 38.9035ZM40.3619 39.9355C40.0161 39.509 39.5624 39.2836 39.0844 39.3008C38.6997 39.3146 38.3331 39.4924 38.0522 39.8015C37.665 40.2274 37.4657 40.8563 37.5055 41.527C37.538 42.0752 37.7281 42.5895 38.0409 42.9754C38.3867 43.4019 38.8404 43.6273 39.3185 43.6101C39.4839 43.6042 39.6459 43.5679 39.7993 43.5039C40.0026 43.4191 40.1906 43.2855 40.3507 43.1094C40.7379 42.6835 40.9372 42.0546 40.8974 41.3839L40.8974 41.3838C40.8649 40.8358 40.6747 40.3214 40.3619 39.9355ZM27.6581 44.1383C28.2331 44.1627 28.8203 44.4634 29.269 44.9635C29.6357 45.3722 29.8675 45.8692 29.9218 46.3629C29.9817 46.9087 29.8228 47.3897 29.4742 47.7174C29.3536 47.8308 29.2138 47.9205 29.0605 47.9845C28.8572 48.0693 28.6301 48.1089 28.3922 48.0988C27.8172 48.0744 27.23 47.7736 26.7812 47.2736L26.7812 47.2736C26.4145 46.8649 26.1827 46.3679 26.1285 45.8742C26.0686 45.3284 26.2275 44.8474 26.576 44.5197C26.8565 44.256 27.2407 44.1205 27.6581 44.1383Z" fill="#BE7E40" fill-opacity="0.74"/>
<path fill-rule="evenodd" clip-rule="evenodd" d="M133.476 146.347C134.048 145.972 134.681 145.884 135.211 146.105C135.742 146.327 136.125 146.838 136.261 147.509C136.386 148.125 136.303 148.83 136.025 149.495C135.748 150.16 135.305 150.716 134.779 151.06C134.207 151.435 133.574 151.523 133.044 151.301C132.513 151.08 132.13 150.568 131.994 149.898C131.869 149.282 131.952 148.576 132.23 147.911C132.507 147.247 132.95 146.691 133.476 146.347ZM130.924 152.74C132.381 151.975 133.875 151.842 135.13 152.365C136.385 152.889 137.341 154.044 137.821 155.618C138.253 157.033 138.22 158.575 137.733 159.743C137.496 160.311 137.142 160.671 136.681 160.813C136.226 160.954 135.741 160.863 135.243 160.655C134.714 160.434 134.171 160.081 133.638 159.735C133.172 159.431 132.732 159.145 132.365 158.992C132.048 158.86 131.566 158.756 131.056 158.647C129.865 158.39 128.514 158.1 128.041 157.196C127.816 156.766 127.821 156.265 128.054 155.705C128.542 154.537 129.614 153.429 130.924 152.74ZM139.521 147.904C138.991 147.682 138.358 147.77 137.785 148.145C137.259 148.489 136.817 149.045 136.539 149.71C136.262 150.374 136.178 151.08 136.304 151.696C136.44 152.366 136.823 152.878 137.353 153.099C137.884 153.321 138.517 153.233 139.089 152.858C139.615 152.514 140.058 151.958 140.335 151.293C140.612 150.628 140.696 149.923 140.571 149.307C140.434 148.637 140.052 148.125 139.521 147.904ZM128.205 148.936C128.551 148.509 129.004 148.284 129.483 148.301C129.867 148.315 130.234 148.492 130.515 148.801C130.902 149.227 131.101 149.856 131.061 150.527C131.029 151.075 130.839 151.589 130.526 151.975C130.18 152.402 129.727 152.627 129.248 152.61C129.083 152.604 128.921 152.568 128.768 152.504C128.564 152.419 128.376 152.286 128.216 152.109C127.829 151.684 127.63 151.055 127.67 150.384L127.67 150.384C127.702 149.836 127.892 149.321 128.205 148.936ZM140.909 153.138C140.334 153.163 139.747 153.463 139.298 153.964C138.931 154.372 138.699 154.869 138.645 155.363C138.585 155.909 138.744 156.39 139.093 156.717C139.213 156.831 139.353 156.92 139.506 156.984C139.71 157.069 139.937 157.109 140.175 157.099C140.75 157.074 141.337 156.774 141.786 156.274L141.786 156.274C142.152 155.865 142.384 155.368 142.438 154.874C142.498 154.328 142.339 153.847 141.991 153.52C141.71 153.256 141.326 153.121 140.909 153.138Z" fill="#BE7E40" fill-opacity="0.74"/>
<path d="M103.702 57.9454C103.716 57.8032 103.722 57.659 103.722 57.5131C103.722 55.0206 101.715 53 99.2397 53C96.7639 53 94.7569 55.0206 94.7569 57.5131C94.7569 57.7551 94.7758 57.9926 94.8122 58.2243C93.3187 57.3207 91.3855 57.3042 89.8863 58.3367C87.8583 59.7334 87.3926 62.5208 88.8461 64.5626C89.621 65.6511 90.7849 66.3079 92.0101 66.4723C91.8857 66.609 91.7682 66.7545 91.6584 66.9087C90.2049 68.9504 90.6706 71.7379 92.6986 73.1346C94.7267 74.5313 97.549 74.0084 99.0026 71.9666C99.081 71.8564 99.1539 71.744 99.2212 71.6298C99.2885 71.744 99.3614 71.8564 99.4399 71.9666C100.893 74.0084 103.716 74.5313 105.744 73.1346C107.772 71.7379 108.238 68.9504 106.784 66.9087C106.655 66.7273 106.515 66.558 106.366 66.4009C107.442 66.1593 108.441 65.5322 109.131 64.5626C110.585 62.5208 110.119 59.7334 108.091 58.3367C106.766 57.4242 105.102 57.331 103.702 57.9454Z" fill="white"/>
<g style="mix-blend-mode:multiply">
<circle cx="99.493" cy="63.9469" r="3.38163" transform="rotate(24.6549 99.493 63.9469)" fill="#FFCE05" fill-opacity="0.6"/>
</g>
<defs>
<linearGradient id="paint0_linear_118_134" x1="83.5" y1="32" x2="83.5" y2="156" gradientUnits="userSpaceOnUse">
<stop stop-color="#764C24"/>
<stop offset="1" stop-color="#58391B"/>
</linearGradient>
<linearGradient id="paint1_linear_118_134" x1="83.5" y1="32" x2="83.5" y2="156" gradientUnits="userSpaceOnUse">
<stop stop-color="#764C24"/>
<stop offset="1" stop-color="#58391B"/>
</linearGradient>
</defs>
</svg>
