<svg width="168" height="188" viewBox="0 0 168 188" fill="none" xmlns="http://www.w3.org/2000/svg">
<path d="M17.5 7C21.0899 7 24 4.08985 24 0.5C24 0.331764 23.9936 0.165021 23.9811 0H33.0189C33.0064 0.165021 33 0.331764 33 0.5C33 4.08985 35.9101 7 39.5 7C43.0899 7 46 4.08985 46 0.5C46 0.331764 45.9936 0.165021 45.9811 0H55.0189C55.0064 0.165021 55 0.331764 55 0.5C55 4.08985 57.9101 7 61.5 7C65.0899 7 68 4.08985 68 0.5C68 0.331764 67.9936 0.165021 67.9811 0H77.0189C77.0064 0.165021 77 0.331764 77 0.5C77 4.08985 79.9101 7 83.5 7C87.0899 7 90 4.08985 90 0.5C90 0.331764 89.9936 0.165021 89.9811 0H99.0189C99.0064 0.165021 99 0.331764 99 0.5C99 4.08985 101.91 7 105.5 7C109.09 7 112 4.08985 112 0.5C112 0.331764 111.994 0.165021 111.981 0H121.019C121.006 0.165021 121 0.331764 121 0.5C121 4.08985 123.91 7 127.5 7C131.09 7 134 4.08985 134 0.5C134 0.331764 133.994 0.165021 133.981 0H143.019C143.006 0.165021 143 0.331764 143 0.5C143 4.08985 145.91 7 149.5 7C153.09 7 156 4.08985 156 0.5C156 0.331764 155.994 0.165021 155.981 0H168V12.0189C167.835 12.0064 167.668 12 167.5 12C163.91 12 161 14.9101 161 18.5C161 22.0899 163.91 25 167.5 25C167.668 25 167.835 24.9936 168 24.9811V34.0189C167.835 34.0064 167.668 34 167.5 34C163.91 34 161 36.9101 161 40.5C161 44.0899 163.91 47 167.5 47C167.668 47 167.835 46.9936 168 46.9811V56.0189C167.835 56.0064 167.668 56 167.5 56C163.91 56 161 58.9101 161 62.5C161 66.0899 163.91 69 167.5 69C167.668 69 167.835 68.9936 168 68.9811V78.0189C167.835 78.0064 167.668 78 167.5 78C163.91 78 161 80.9101 161 84.5C161 88.0899 163.91 91 167.5 91C167.668 91 167.835 90.9936 168 90.9811V100.019C167.835 100.006 167.668 100 167.5 100C163.91 100 161 102.91 161 106.5C161 110.09 163.91 113 167.5 113C167.668 113 167.835 112.994 168 112.981V122.019C167.835 122.006 167.668 122 167.5 122C163.91 122 161 124.91 161 128.5C161 132.09 163.91 135 167.5 135C167.668 135 167.835 134.994 168 134.981V144.019C167.835 144.006 167.668 144 167.5 144C163.91 144 161 146.91 161 150.5C161 154.09 163.91 157 167.5 157C167.668 157 167.835 156.994 168 156.981V166.019C167.835 166.006 167.668 166 167.5 166C163.91 166 161 168.91 161 172.5C161 176.09 163.91 179 167.5 179C167.668 179 167.835 178.994 168 178.981V188H155.981C155.726 184.644 152.922 182 149.5 182C146.078 182 143.274 184.644 143.019 188H133.981C133.726 184.644 130.922 182 127.5 182C124.078 182 121.274 184.644 121.019 188H111.981C111.726 184.644 108.922 182 105.5 182C102.078 182 99.2743 184.644 99.0189 188H89.9811C89.7257 184.644 86.9216 182 83.5 182C80.0784 182 77.2743 184.644 77.0189 188H67.9811C67.7257 184.644 64.9216 182 61.5 182C58.0784 182 55.2743 184.644 55.0189 188H45.9811C45.7257 184.644 42.9216 182 39.5 182C36.0784 182 33.2743 184.644 33.0189 188H23.9811C23.7257 184.644 20.9216 182 17.5 182C14.0784 182 11.2743 184.644 11.0189 188H0V178.981C0.165021 178.994 0.331764 179 0.5 179C4.08985 179 7 176.09 7 172.5C7 168.91 4.08985 166 0.5 166C0.331764 166 0.165021 166.006 0 166.019V156.981C0.165021 156.994 0.331764 157 0.5 157C4.08985 157 7 154.09 7 150.5C7 146.91 4.08985 144 0.5 144C0.331764 144 0.165021 144.006 0 144.019V134.981C0.165021 134.994 0.331764 135 0.5 135C4.08985 135 7 132.09 7 128.5C7 124.91 4.08985 122 0.5 122C0.331764 122 0.165021 122.006 0 122.019V112.981C0.165021 112.994 0.331764 113 0.5 113C4.08985 113 7 110.09 7 106.5C7 102.91 4.08985 100 0.5 100C0.331764 100 0.165021 100.006 0 100.019V90.9811C0.165021 90.9936 0.331764 91 0.5 91C4.08985 91 7 88.0899 7 84.5C7 80.9101 4.08985 78 0.5 78C0.331764 78 0.165021 78.0064 0 78.0189V68.9811C0.165021 68.9936 0.331764 69 0.5 69C4.08985 69 7 66.0899 7 62.5C7 58.9101 4.08985 56 0.5 56C0.331764 56 0.165021 56.0064 0 56.0189V46.9811C0.165021 46.9936 0.331764 47 0.5 47C4.08985 47 7 44.0899 7 40.5C7 36.9101 4.08985 34 0.5 34C0.331764 34 0.165021 34.0064 0 34.0189V24.9811C0.165021 24.9936 0.331764 25 0.5 25C4.08985 25 7 22.0899 7 18.5C7 14.9101 4.08985 12 0.5 12C0.331764 12 0.165021 12.0064 0 12.0189V0H11.0189C11.0064 0.165021 11 0.331764 11 0.5C11 4.08985 13.9101 7 17.5 7Z" fill="white"/>
<g clip-path="url(#clip0_118_516)">
<rect x="14" y="16" width="140" height="156" rx="4" fill="#A5D6D0"/>
<circle cx="34" cy="84" r="14" fill="#9B7963"/>
<circle cx="34" cy="84" r="10" fill="#3B2F1E"/>
<circle cx="134" cy="84" r="14" fill="#9B7963"/>
<circle cx="134" cy="84" r="10" fill="#3B2F1E"/>
<path d="M82.1607 48.0612C82.1218 45.866 83.5574 44.0482 85.3674 44.0009C87.1773 43.9537 88.6761 45.6949 88.7151 47.8901L88.7704 51.0053L89.6409 48.1045C90.2601 46.0412 92.1411 44.9774 93.8423 45.7284C95.5435 46.4793 96.4206 48.7607 95.8014 50.824L92.8118 60.7862C92.1926 62.8495 90.3116 63.9133 88.6104 63.1623C88.0657 62.9219 87.6056 62.5246 87.2519 62.0278C86.7926 62.3466 86.2629 62.5347 85.6966 62.5495C85.2325 62.5616 84.7889 62.4561 84.3851 62.2556C84.083 63.3769 83.3744 64.3244 82.3896 64.7592C80.6884 65.5101 78.8074 64.4463 78.1882 62.383L75.1986 52.4208C74.5794 50.3575 75.4565 48.0761 77.1577 47.3252C78.8589 46.5742 80.7399 47.638 81.3591 49.7013L82.2421 52.6437L82.1607 48.0612Z" fill="#9B7963"/>
<ellipse cx="84" cy="106" rx="55" ry="51" fill="#9B7963"/>
<path fill-rule="evenodd" clip-rule="evenodd" d="M31.9126 122.419C37.2238 113.222 47.4044 107 59.0909 107C65.6589 107 71.7512 108.965 76.7708 112.319C81.43 115.433 88.57 115.433 93.2293 112.319C98.2489 108.965 104.341 107 110.909 107C121.704 107 131.213 112.308 136.788 120.367C130.097 141.538 108.996 157 84 157C59.8194 157 39.2833 142.53 31.9126 122.419Z" fill="#F5E8CF"/>
<path d="M77 124.5L80.5 125.5L85.5 123L90 125.5L94 124.5L93.6497 128.528C93.2821 132.756 89.7433 136 85.5 136C81.2567 136 77.7179 132.756 77.3503 128.528L77 124.5Z" fill="#FEB1AA"/>
<path d="M85.5 111.437V120.315C85.5 123.215 87.8505 125.565 90.75 125.565H91.4834C93.9779 125.565 96 123.543 96 121.049V121.049" stroke="#3B2F1E" stroke-width="2.5" stroke-linecap="round" stroke-linejoin="round"/>
<path d="M85.5 111.437V120.315C85.5 123.215 83.1495 125.565 80.25 125.565H79.5166C77.0221 125.565 75 123.543 75 121.049V121.049" stroke="#3B2F1E" stroke-width="2.5" stroke-linecap="round" stroke-linejoin="round"/>
<path d="M95.7781 112.231C95.7781 115.539 91.1268 118.22 85.3891 118.22C79.6513 118.22 75 115.539 75 112.231C75 108.924 79.6513 104 85.3891 104C91.1268 104 95.7781 108.924 95.7781 112.231Z" fill="#3B2F1E"/>
<ellipse cx="80" cy="109.5" rx="2" ry="1.5" transform="rotate(-25.5447 80 109.5)" fill="white"/>
<ellipse cx="53.5" cy="113" rx="5.5" ry="3" fill="#FFCEB9"/>
<ellipse cx="115.5" cy="113" rx="5.5" ry="3" fill="#FFCEB9"/>
<circle cx="54.5" cy="103.5" r="7.5" fill="#3B2F1E"/>
<circle cx="51.5" cy="101.5" r="2.5" fill="white"/>
<circle cx="54.5" cy="105.5" r="1.5" fill="white"/>
<circle cx="113.5" cy="103.5" r="7.5" fill="#3B2F1E"/>
<circle cx="110.5" cy="101.5" r="2.5" fill="white"/>
<circle cx="113.5" cy="105.5" r="1.5" fill="white"/>
<path d="M49.735 118.947L27.735 116.947M50.4981 123.42L27.735 124.947M51.5421 127.706L28.735 132.947" stroke="#3B2F1E" stroke-width="2" stroke-linecap="round"/>
<path d="M119.265 118.947L141.265 116.947M118.502 123.42L141.265 124.947M117.458 127.706L140.265 132.947" stroke="#3B2F1E" stroke-width="2" stroke-linecap="round"/>
<circle cx="107.5" cy="76.5" r="3.75" stroke="white" stroke-width="1.5"/>
<circle cx="117" cy="62" r="5" stroke="white" stroke-width="2"/>
<circle cx="126.5" cy="44.5" r="6.25" stroke="white" stroke-width="2.5"/>
<path d="M24.8575 0.834785C25.942 0.19677 26.956 -0.509315 27.8927 -1.27119C30.5992 -0.0342026 33.7286 0.668755 36.9996 0.668755C39.6791 0.668755 42.2534 0.217972 44.5831 -0.61866C38.3252 7.96146 26.9623 28.3558 39.9179 50.3909C54.1904 74.6665 42.7108 96.1339 36.6525 104.749C36.3003 105.249 35.316 104.935 35.5257 104.389C38.7023 96.1127 39.2208 76.6908 24.8575 53.7288C11.9374 33.0739 18.1667 13.4954 21.1117 2.66494C22.4143 2.14363 23.6673 1.53462 24.8575 0.834785Z" fill="#017B4E"/>
<path d="M44.2458 2.00004C44.9661 9.23421 46.9471 17.6888 51.3692 26.54C62.2319 48.282 47.1915 76.7797 43.099 83.8187C42.872 84.2094 42.2544 84.0306 42.2874 83.5837C42.7632 77.1007 43.533 54.7171 33.9663 33.2337C29.7634 23.7949 30.5471 13.6972 33.103 4.84216C37.0603 4.66757 40.8431 3.68425 44.2458 2.00004Z" fill="#09A76D"/>
<path d="M124.577 174.538C124.004 174.81 123.469 175.112 122.974 175.438C121.545 174.909 119.892 174.608 118.164 174.608C116.749 174.608 115.389 174.801 114.159 175.159C117.464 171.49 123.466 162.77 116.623 153.349C109.084 142.97 115.148 133.791 118.347 130.107C118.533 129.893 119.053 130.028 118.943 130.261C117.265 133.8 116.991 142.104 124.577 151.922C131.401 160.753 128.111 169.124 126.556 173.755C125.868 173.978 125.206 174.238 124.577 174.538Z" fill="#017B4E"/>
<path d="M115.25 174.029C114.595 174.323 113.982 174.649 113.415 175C111.779 174.43 109.888 174.106 107.91 174.106C106.291 174.106 104.734 174.313 103.326 174.699C107.109 170.743 113.978 161.339 106.146 151.179C97.5186 139.986 104.458 130.088 108.12 126.116C108.333 125.885 108.928 126.03 108.801 126.282C106.881 130.098 106.568 139.053 115.25 149.64C123.06 159.164 119.295 168.191 117.514 173.185C116.727 173.425 115.97 173.706 115.25 174.029Z" fill="#02905D"/>
<path d="M129.996 175.075C130.376 171.982 131.423 168.367 133.758 164.582C139.496 155.286 131.552 143.102 129.39 140.092C129.27 139.925 128.944 140.001 128.962 140.193C129.213 142.964 129.62 152.535 124.567 161.72C122.347 165.756 122.761 170.074 124.111 173.86C126.201 173.934 128.199 174.355 129.996 175.075Z" fill="#09A76D"/>
</g>
<defs>
<clipPath id="clip0_118_516">
<rect x="14" y="16" width="140" height="156" rx="4" fill="white"/>
</clipPath>
</defs>
</svg>
